<?xml version="1.0" encoding="UTF-8"?>
<!DOCTYPE svg PUBLIC "-//W3C//DTD SVG 1.1//EN" "http://www.w3.org/Graphics/SVG/1.1/DTD/svg11.dtd">
<!-- Creator: CorelDRAW -->
<svg xmlns="http://www.w3.org/2000/svg" xml:space="preserve" width="22.2037mm" height="22.5707mm" version="1.1" style="shape-rendering:geometricPrecision; text-rendering:geometricPrecision; image-rendering:optimizeQuality; fill-rule:evenodd; clip-rule:evenodd"
viewBox="0 0 285.02 289.73"
 xmlns:xlink="http://www.w3.org/1999/xlink"
 xmlns:xodm="http://www.corel.com/coreldraw/odm/2003">
 <defs>
  <style type="text/css">
   <![CDATA[
    .fil0 {fill:#2FA1F2}
   ]]>
  </style>
 </defs>
 <g id="Layer_x0020_1">
  <metadata id="CorelCorpID_0Corel-Layer"/>
  <g id="_1838261752352">
   <path class="fil0" d="M157.46 18.7l119.49 124.08c11.98,12.44 10.2,32.54 -2.51,44.78l-96.04 92.48c-12.71,12.24 -32.86,13.27 -44.84,0.82l-119.49 -124.08c-4.9,-5.08 -7.62,-11.48 -8.04,-18.64l-5.97 -102.3c-0.57,-9.81 3.32,-19.18 10.55,-26.14 7.23,-6.96 16.74,-10.5 26.52,-9.56l102.01 9.82c7.13,0.69 13.42,3.65 18.32,8.73zm-14.21 13.68l119.49 124.08c4.4,4.57 3.74,12.39 -1.48,17.42l-96.04 92.48c-5.22,5.02 -13.06,5.39 -17.46,0.82l-119.49 -124.08c-1.8,-1.87 -2.74,-4.07 -2.9,-6.8l-3.34 -57.2 -2.63 -45.1c-0.23,-3.94 1.3,-7.65 4.38,-10.61 3.08,-2.97 6.85,-4.36 10.77,-3.98l44.97 4.33 57.04 5.49c2.73,0.26 4.89,1.28 6.69,3.16z"/>
   <circle class="fil0" transform="matrix(0.36894 -0.355285 0.342137 0.355285 43.6722 44.0437)" r="22.93"/>
   <path class="fil0" d="M210.68 193.33l-54.74 54.74 -54.74 -54.74c-15.11,-15.11 -15.11,-39.62 0,-54.74 15.11,-15.12 39.62,-15.12 54.74,0 15.11,-15.12 39.62,-15.12 54.74,0 15.11,15.11 15.11,39.62 0,54.74z"/>
  </g>
 </g>
</svg>
