<?xml version="1.0" encoding="UTF-8"?>
<!DOCTYPE svg PUBLIC "-//W3C//DTD SVG 1.1//EN" "http://www.w3.org/Graphics/SVG/1.1/DTD/svg11.dtd">
<!-- Creator: CorelDRAW -->
<svg xmlns="http://www.w3.org/2000/svg" xml:space="preserve" width="13.5526mm" height="12.9691mm" version="1.1" style="shape-rendering:geometricPrecision; text-rendering:geometricPrecision; image-rendering:optimizeQuality; fill-rule:evenodd; clip-rule:evenodd"
viewBox="0 0 37.04 35.45"
 xmlns:xlink="http://www.w3.org/1999/xlink"
 xmlns:xodm="http://www.corel.com/coreldraw/odm/2003">
 <defs>
  <style type="text/css">
   <![CDATA[
    .fil0 {fill:#5A8CF0;fill-rule:nonzero}
    .fil3 {fill:black;fill-rule:nonzero;fill-opacity:0.200000}
    .fil1 {fill:white;fill-rule:nonzero;fill-opacity:0.301961}
    .fil2 {fill:white;fill-rule:nonzero;fill-opacity:0.501961}
    .fil4 {fill:white;fill-rule:nonzero;fill-opacity:0.701961}
   ]]>
  </style>
 </defs>
 <g id="Layer_x0020_1">
  <metadata id="CorelCorpID_0Corel-Layer"/>
  <g id="_2697237499888">
   <polygon class="fil0" points="22.93,5.55 24.38,4.93 29.92,13.03 28.19,14.78 "/>
   <polygon class="fil1" points="22.93,5.55 24.38,4.93 29.92,13.03 28.19,14.78 "/>
   <path class="fil0" d="M15.95 0.31c-3.82,-1.36 -4.2,2 -4.14,4.5l1.14 7.69 6.22 1.48c0,0 0.6,-12.31 -3.22,-13.67zm-2.5 7.95c-0.49,-1.73 -1.82,-7.08 1.17,-7.11 2.99,-0.03 4.56,7.04 3.12,9.19 -1.44,2.15 -3.31,1.35 -4.29,-2.08z"/>
   <path class="fil2" d="M15.95 0.31c-3.82,-1.36 -4.2,2 -4.14,4.5l1.14 7.69 6.22 1.48c0,0 0.6,-12.31 -3.22,-13.67zm-2.5 7.95c-0.49,-1.73 -1.82,-7.08 1.17,-7.11 2.99,-0.03 4.56,7.04 3.12,9.19 -1.44,2.15 -3.31,1.35 -4.29,-2.08z"/>
   <polygon class="fil0" points="11.59,11.69 15.47,5.11 24.14,10.04 18.52,21.14 "/>
   <polygon class="fil0" points="20.43,20.21 22.09,5.36 28.44,4.37 32.19,8.15 28.54,23.18 "/>
   <polygon class="fil3" points="20.43,20.21 22.09,5.36 28.44,4.37 32.19,8.15 28.54,23.18 "/>
   <path class="fil0" d="M33.1 19.86c0.79,-2.86 6.76,-9.81 2.29,-11.89 -4.47,-2.08 -10.55,5.4 -15.83,3.92 -5.28,-1.48 -7.77,-7.06 -7.77,-7.06l0.35 1.91c0,0 -15.7,17.13 -11.39,20.46 4.02,3.09 29.91,8.25 29.91,8.25 4.41,-1.52 1.66,-12.73 2.45,-15.59zm0.24 -3.11c-0.61,-0.02 -2.5,-3.68 -2.5,-3.68 1.23,-5.36 4.22,-4.93 5.21,-3.01 0.99,1.91 -2.09,6.72 -2.7,6.7l-0.01 -0z"/>
   <path class="fil4" d="M33.1 19.86c0.79,-2.86 6.76,-9.81 2.29,-11.89 -4.47,-2.08 -10.55,5.4 -15.83,3.92 -5.28,-1.48 -7.77,-7.06 -7.77,-7.06l0.35 1.91c0,0 -15.7,17.13 -11.39,20.46 4.02,3.09 29.91,8.25 29.91,8.25 4.41,-1.52 1.66,-12.73 2.45,-15.59zm0.24 -3.11c-0.61,-0.02 -2.5,-3.68 -2.5,-3.68 1.23,-5.36 4.22,-4.93 5.21,-3.01 0.99,1.91 -2.09,6.72 -2.7,6.7l-0.01 -0z"/>
  </g>
 </g>
</svg>
