<?xml version="1.0" encoding="UTF-8"?>
<!DOCTYPE svg PUBLIC "-//W3C//DTD SVG 1.1//EN" "http://www.w3.org/Graphics/SVG/1.1/DTD/svg11.dtd">
<!-- Creator: CorelDRAW -->
<svg xmlns="http://www.w3.org/2000/svg" xml:space="preserve" width="16.9767mm" height="12.7837mm" version="1.1" style="shape-rendering:geometricPrecision; text-rendering:geometricPrecision; image-rendering:optimizeQuality; fill-rule:evenodd; clip-rule:evenodd"
viewBox="0 0 64.33 48.44"
 xmlns:xlink="http://www.w3.org/1999/xlink"
 xmlns:xodm="http://www.corel.com/coreldraw/odm/2003">
 <defs>
  <style type="text/css">
   <![CDATA[
    .fil0 {fill:#263238;fill-rule:nonzero}
    .fil1 {fill:white;fill-rule:nonzero;fill-opacity:0.101961}
    .fil2 {fill:black;fill-rule:nonzero;fill-opacity:0.200000}
    .fil3 {fill:white;fill-rule:nonzero;fill-opacity:0.301961}
   ]]>
  </style>
 </defs>
 <g id="Layer_x0020_1">
  <metadata id="CorelCorpID_0Corel-Layer"/>
  <g id="_2697242246080">
   <polygon class="fil0" points="-0,31.39 50.47,47.93 62.77,10.4 31.04,0 23.05,14.63 5.09,15.86 "/>
   <polygon class="fil1" points="-0,31.39 50.47,47.93 62.77,10.4 31.04,0 23.05,14.63 5.09,15.86 "/>
   <polygon class="fil1" points="23.42,39.06 52.03,48.44 64.33,10.92 54.45,7.68 46.47,22.3 28.5,23.54 "/>
   <polygon class="fil2" points="29.66,7.47 32.02,3.14 50.25,9.12 47.89,13.45 "/>
   <polygon class="fil2" points="46.83,15.39 45.14,18.48 26.91,12.5 28.6,9.41 "/>
   <polygon class="fil3" points="46.47,22.3 23.05,14.63 5.09,15.86 28.5,23.54 "/>
  </g>
 </g>
</svg>
