<?xml version="1.0" encoding="UTF-8"?>
<!DOCTYPE svg PUBLIC "-//W3C//DTD SVG 1.1//EN" "http://www.w3.org/Graphics/SVG/1.1/DTD/svg11.dtd">
<!-- Creator: CorelDRAW -->
<svg xmlns="http://www.w3.org/2000/svg" xml:space="preserve" width="7.0963mm" height="4.4217mm" version="1.1" style="shape-rendering:geometricPrecision; text-rendering:geometricPrecision; image-rendering:optimizeQuality; fill-rule:evenodd; clip-rule:evenodd"
viewBox="0 0 11.13 6.93"
 xmlns:xlink="http://www.w3.org/1999/xlink"
 xmlns:xodm="http://www.corel.com/coreldraw/odm/2003">
 <defs>
  <style type="text/css">
   <![CDATA[
    .fil0 {fill:#5A8CF0;fill-rule:nonzero}
    .fil2 {fill:black;fill-rule:nonzero;fill-opacity:0.200000}
    .fil1 {fill:black;fill-rule:nonzero;fill-opacity:0.400000}
   ]]>
  </style>
 </defs>
 <g id="Layer_x0020_1">
  <metadata id="CorelCorpID_0Corel-Layer"/>
  <g id="_2697237456256">
   <path class="fil0" d="M11.13 0.83c-2.55,-0.07 -5.09,0.45 -7.4,1.54 -0.27,0.13 -0.54,0.26 -0.8,0.4l-1.39 4.16c0,0 2.07,-1.66 7.91,-2.92l1.68 -3.19z"/>
   <path class="fil1" d="M11.13 0.83c-2.55,-0.07 -5.09,0.45 -7.4,1.54 -0.27,0.13 -0.54,0.26 -0.8,0.4l-1.39 4.16c0,0 2.07,-1.66 7.91,-2.92l1.68 -3.19z"/>
   <path class="fil0" d="M11.05 0.59c-2.84,-0.23 -5.71,0.28 -8.29,1.49 0,0 -0,0 -0,0l-1.61 4.08c0,0 2.17,-1.53 8.06,-2.49l1.85 -3.08z"/>
   <path class="fil2" d="M11.05 0.59c-2.84,-0.23 -5.71,0.28 -8.29,1.49 0,0 -0,0 -0,0l-1.61 4.08c0,0 2.17,-1.53 8.06,-2.49l1.85 -3.08z"/>
   <path class="fil0" d="M10.66 0.31l-1.61 3.45c-2.38,-0.1 -4.75,0.38 -6.91,1.39 -0.75,0.35 -1.47,0.77 -2.14,1.23l1.96 -4.49c0,0 4.57,-2.83 8.71,-1.59z"/>
   <path class="fil2" d="M10.02 0.68l-1.09 2.51c0,0 -4.74,-0.25 -8.13,2.26l1.41 -3.39c0,0 3.95,-2.5 7.81,-1.38z"/>
   <path class="fil0" d="M4.46 2.41c0.19,0.4 0.77,0.52 1.32,0.26 0.55,-0.26 0.83,-0.79 0.64,-1.18 -0.19,-0.4 -0.77,-0.52 -1.32,-0.27 -0.55,0.26 -0.83,0.79 -0.64,1.19z"/>
  </g>
 </g>
</svg>
