<?xml version="1.0" encoding="UTF-8"?>
<!DOCTYPE svg PUBLIC "-//W3C//DTD SVG 1.1//EN" "http://www.w3.org/Graphics/SVG/1.1/DTD/svg11.dtd">
<!-- Creator: CorelDRAW -->
<svg xmlns="http://www.w3.org/2000/svg" xml:space="preserve" width="11.9614mm" height="5.0595mm" version="1.1" style="shape-rendering:geometricPrecision; text-rendering:geometricPrecision; image-rendering:optimizeQuality; fill-rule:evenodd; clip-rule:evenodd"
viewBox="0 0 29.38 12.43"
 xmlns:xlink="http://www.w3.org/1999/xlink"
 xmlns:xodm="http://www.corel.com/coreldraw/odm/2003">
 <defs>
  <style type="text/css">
   <![CDATA[
    .fil0 {fill:#5A8CF0;fill-rule:nonzero}
    .fil2 {fill:black;fill-rule:nonzero;fill-opacity:0.200000}
    .fil1 {fill:black;fill-rule:nonzero;fill-opacity:0.400000}
   ]]>
  </style>
 </defs>
 <g id="Layer_x0020_1">
  <metadata id="CorelCorpID_0Corel-Layer"/>
  <g id="_2697242250448">
   <path class="fil0" d="M0.09 7.5c5.29,-2.86 11.19,-4.43 17.2,-4.6 0.7,-0.02 1.41,-0.02 2.11,-0l7.32 7.29c0,0 -6.11,-1.3 -19.72,2.23l-6.91 -4.92z"/>
   <path class="fil1" d="M0.09 7.5c5.29,-2.86 11.19,-4.43 17.2,-4.6 0.7,-0.02 1.41,-0.02 2.11,-0l7.32 7.29c0,0 -6.11,-1.3 -19.72,2.23l-6.91 -4.92z"/>
   <path class="fil0" d="M-0 6.93c5.73,-3.5 12.3,-5.45 19.02,-5.64 0,0 0,0 0,0l7.71 6.88c0,0 -6.17,-0.92 -19.58,3.29l-7.14 -4.53z"/>
   <path class="fil2" d="M-0 6.93c5.73,-3.5 12.3,-5.45 19.02,-5.64 0,0 0,0 0,0l7.71 6.88c0,0 -6.17,-0.92 -19.58,3.29l-7.14 -4.53z"/>
   <path class="fil0" d="M0.52 5.93l7.04 5.55c4.9,-2.72 10.39,-4.22 16,-4.38 1.94,-0.05 3.89,0.06 5.82,0.33l-8.86 -7.36c0,0 -12.61,-1.11 -20,5.87z"/>
   <path class="fil2" d="M2.28 6.02l4.95 4.13c0,0 9.7,-5.53 19.49,-3.86l-6.55 -5.64c0,0 -10.96,-1.08 -17.89,5.36z"/>
   <path class="fil0" d="M15.78 3.77c0.03,1.03 -1.07,1.91 -2.5,1.95 -1.43,0.04 -2.58,-0.77 -2.61,-1.81 -0.03,-1.04 1.07,-1.92 2.5,-1.96 1.43,-0.04 2.58,0.77 2.61,1.82z"/>
  </g>
 </g>
</svg>
