<?xml version="1.0" encoding="UTF-8"?>
<!DOCTYPE svg PUBLIC "-//W3C//DTD SVG 1.1//EN" "http://www.w3.org/Graphics/SVG/1.1/DTD/svg11.dtd">
<!-- Creator: CorelDRAW -->
<svg xmlns="http://www.w3.org/2000/svg" xml:space="preserve" width="4.9836mm" height="2.1669mm" version="1.1" style="shape-rendering:geometricPrecision; text-rendering:geometricPrecision; image-rendering:optimizeQuality; fill-rule:evenodd; clip-rule:evenodd"
viewBox="0 0 5.54 2.41"
 xmlns:xlink="http://www.w3.org/1999/xlink"
 xmlns:xodm="http://www.corel.com/coreldraw/odm/2003">
 <defs>
  <style type="text/css">
   <![CDATA[
    .fil0 {fill:#5A8CF0;fill-rule:nonzero}
    .fil2 {fill:black;fill-rule:nonzero;fill-opacity:0.200000}
    .fil1 {fill:black;fill-rule:nonzero;fill-opacity:0.400000}
   ]]>
  </style>
 </defs>
 <g id="Layer_x0020_1">
  <metadata id="CorelCorpID_0Corel-Layer"/>
  <g id="_2697899472976">
   <path class="fil0" d="M5.52 1.52c-0.98,-0.57 -2.08,-0.9 -3.22,-0.96 -0.13,-0.01 -0.27,-0.01 -0.4,-0.01l-1.42 1.33c0,0 1.16,-0.21 3.7,0.53l1.33 -0.89z"/>
   <path class="fil1" d="M5.52 1.52c-0.98,-0.57 -2.08,-0.9 -3.22,-0.96 -0.13,-0.01 -0.27,-0.01 -0.4,-0.01l-1.42 1.33c0,0 1.16,-0.21 3.7,0.53l1.33 -0.89z"/>
   <path class="fil0" d="M5.54 1.41c-1.06,-0.69 -2.29,-1.1 -3.55,-1.17 0,0 -0,-0 -0,-0l-1.49 1.26c0,0 1.17,-0.14 3.67,0.73l1.37 -0.82z"/>
   <path class="fil2" d="M5.54 1.41c-1.06,-0.69 -2.29,-1.1 -3.55,-1.17 0,0 -0,-0 -0,-0l-1.49 1.26c0,0 1.17,-0.14 3.67,0.73l1.37 -0.82z"/>
   <path class="fil0" d="M5.45 1.22l-1.36 1.01c-0.91,-0.54 -1.94,-0.85 -2.99,-0.91 -0.37,-0.02 -0.73,-0.01 -1.1,0.03l1.71 -1.34c0,0 2.38,-0.14 3.74,1.22z"/>
   <path class="fil2" d="M5.12 1.23l-0.96 0.75c0,0 -1.8,-1.1 -3.65,-0.84l1.27 -1.03c0,0 2.07,-0.14 3.34,1.11z"/>
   <path class="fil0" d="M2.58 0.73c-0.01,0.19 0.19,0.37 0.46,0.38 0.27,0.02 0.49,-0.13 0.5,-0.33 0.01,-0.19 -0.19,-0.37 -0.46,-0.38 -0.27,-0.02 -0.49,0.13 -0.5,0.33z"/>
  </g>
 </g>
</svg>
