<?xml version="1.0" encoding="UTF-8"?>
<!DOCTYPE svg PUBLIC "-//W3C//DTD SVG 1.1//EN" "http://www.w3.org/Graphics/SVG/1.1/DTD/svg11.dtd">
<!-- Creator: CorelDRAW -->
<svg xmlns="http://www.w3.org/2000/svg" xml:space="preserve" width="8.2659mm" height="8.0734mm" version="1.1" style="shape-rendering:geometricPrecision; text-rendering:geometricPrecision; image-rendering:optimizeQuality; fill-rule:evenodd; clip-rule:evenodd"
viewBox="0 0 15.23 14.88"
 xmlns:xlink="http://www.w3.org/1999/xlink"
 xmlns:xodm="http://www.corel.com/coreldraw/odm/2003">
 <defs>
  <style type="text/css">
   <![CDATA[
    .fil5 {fill:#263238;fill-rule:nonzero}
    .fil0 {fill:#5A8CF0;fill-rule:nonzero}
    .fil2 {fill:black;fill-rule:nonzero;fill-opacity:0.200000}
    .fil3 {fill:black;fill-rule:nonzero;fill-opacity:0.301961}
    .fil4 {fill:white;fill-rule:nonzero;fill-opacity:0.301961}
    .fil6 {fill:white;fill-rule:nonzero;fill-opacity:0.501961}
    .fil1 {fill:white;fill-rule:nonzero;fill-opacity:0.600000}
   ]]>
  </style>
 </defs>
 <g id="Layer_x0020_1">
  <metadata id="CorelCorpID_0Corel-Layer"/>
  <g id="_2697242214112">
   <ellipse class="fil0" transform="matrix(0.369244 -0.385718 0.385718 0.369244 8.02172 7.18129)" rx="12.87" ry="14.05"/>
   <path class="fil1" d="M12.66 2.09c-1.43,-1.33 -3.31,-2.07 -5.26,-2.08 -3.97,0 -6.9,3.22 -6.55,7.18l7.18 0 4.63 -5.1z"/>
   <path class="fil2" d="M2.5 2.09l5.52 5.08 -0.63 -7.16c-0.03,0 -0.07,-0 -0.1,-0 -1.82,0 -3.55,0.75 -4.79,2.08l-0 0z"/>
   <path class="fil0" d="M2.5 2.09l5.52 5.08 -0.63 -7.16c-0.03,0 -0.07,-0 -0.1,-0 -1.82,0 -3.55,0.75 -4.79,2.08l-0 0z"/>
   <path class="fil3" d="M2.5 2.09l5.52 5.08 -0.63 -7.16c-0.03,0 -0.07,-0 -0.1,-0 -1.82,0 -3.55,0.75 -4.79,2.08l-0 0z"/>
   <path class="fil4" d="M8.65 14.36c3.96,0 6.9,-3.22 6.55,-7.18l-7.18 0 -4.63 5.07c1.43,1.34 3.31,2.09 5.26,2.11l0 -0z"/>
   <path class="fil5" d="M13.35 13.13c0.01,0.06 0.01,0.11 0.01,0.17 0,0.87 -0.71,1.58 -1.58,1.58 -0.01,0 -0.02,-0 -0.02,-0 -0.98,-0.02 -1.8,-0.77 -1.9,-1.75 -0.01,-0.06 -0.01,-0.12 -0.01,-0.18 0,-0.86 0.7,-1.56 1.56,-1.56 0.01,0 0.03,0 0.04,0 0.98,0.02 1.8,0.77 1.9,1.74l-0 0z"/>
   <path class="fil0" d="M11 13.42c-0.14,-0.11 -0.23,-0.27 -0.26,-0.45 -0,-0.02 -0,-0.04 -0,-0.06 0,-0.19 0.15,-0.34 0.34,-0.34 0.01,0 0.02,0 0.03,0 0.23,0 0.31,0.11 0.46,0.26 0.12,-0.15 0.19,-0.26 0.42,-0.26 0.01,0 0.01,-0 0.02,-0 0.22,0 0.41,0.18 0.42,0.4 0,0.01 0,0.02 0,0.04 0,0.15 -0.06,0.3 -0.17,0.41l-0.58 0.63 -0.67 -0.63z"/>
   <path class="fil5" d="M3.5 4.38c0.01,0.06 0.01,0.12 0.01,0.19 0,0.86 -0.7,1.56 -1.56,1.56 -0.01,0 -0.03,-0 -0.04,-0 -0.98,-0.02 -1.8,-0.77 -1.9,-1.75 -0.01,-0.06 -0.01,-0.12 -0.01,-0.18 0,-0.86 0.7,-1.56 1.56,-1.56 0.01,0 0.03,0 0.04,0 0.98,0.02 1.8,0.77 1.9,1.74l-0 -0z"/>
   <path class="fil0" d="M2.86 4.38c0,0.03 0.01,0.07 0.01,0.1 0,0.55 -0.44,0.99 -0.99,0.99 -0.01,0 -0.01,0 -0.02,0 -0.62,-0.01 -1.13,-0.48 -1.2,-1.1 -0,-0.04 -0.01,-0.07 -0.01,-0.11 0,-0.55 0.44,-0.99 0.99,-0.99 0.01,0 0.01,0 0.02,0 0.62,0.01 1.14,0.49 1.2,1.11l-0 0z"/>
   <path class="fil6" d="M2.86 4.38c0,0.03 0.01,0.07 0.01,0.1 0,0.55 -0.44,0.99 -0.99,0.99 -0.01,0 -0.01,0 -0.02,0 -0.62,-0.01 -1.13,-0.48 -1.2,-1.1 -0,-0.04 -0.01,-0.07 -0.01,-0.11 0,-0.55 0.44,-0.99 0.99,-0.99 0.01,0 0.01,0 0.02,0 0.62,0.01 1.14,0.49 1.2,1.11l-0 0z"/>
   <path class="fil0" d="M2.16 4.62c-0.1,0.1 -0.24,0.15 -0.38,0.15 -0.14,0 -0.28,-0.06 -0.38,-0.15 -0.02,-0.02 -0.04,-0.03 -0.07,-0.03 -0.05,0 -0.09,0.04 -0.09,0.09 0,0.03 0.01,0.06 0.04,0.07 0.14,0.14 0.33,0.21 0.52,0.21 0.19,0 0.38,-0.08 0.52,-0.21 0.08,-0.08 -0.06,-0.22 -0.15,-0.13l-0.01 0z"/>
   <path class="fil0" d="M1.46 4.03c0,0.12 -0.02,0.22 -0.08,0.22 -0.05,0 -0.1,-0.1 -0.11,-0.22 -0.01,-0.12 0.02,-0.22 0.08,-0.22 0.05,0 0.1,0.1 0.11,0.22z"/>
   <path class="fil0" d="M2.17 4.03c0,0.12 -0.02,0.22 -0.07,0.22 -0.05,0 -0.1,-0.1 -0.11,-0.22 -0.01,-0.12 0.02,-0.22 0.08,-0.22 0.05,0 0.1,0.1 0.11,0.22z"/>
   <path class="fil5" d="M14.16 2.8c0.01,0.06 0.01,0.12 0.01,0.18 0,0.86 -0.7,1.56 -1.56,1.56 -0.01,0 -0.03,-0 -0.04,-0 -0.98,-0.02 -1.8,-0.77 -1.9,-1.74 -0.01,-0.06 -0.01,-0.11 -0.01,-0.17 0,-0.87 0.71,-1.58 1.58,-1.58 0.01,0 0.02,0 0.02,0 0.98,0.02 1.8,0.77 1.9,1.75l-0 0z"/>
   <path class="fil0" d="M13.51 2.8c0,0.04 0.01,0.07 0.01,0.11 0,0.55 -0.44,0.99 -0.99,0.99 -0.01,0 -0.01,-0 -0.02,-0 -0.62,-0.01 -1.13,-0.48 -1.2,-1.1 -0,-0.04 -0.01,-0.07 -0.01,-0.11 0,-0.55 0.45,-0.99 0.99,-0.99 0.01,0 0.01,0 0.02,0 0.62,0.01 1.13,0.49 1.2,1.1l-0 0z"/>
   <path class="fil6" d="M13.51 2.8c0,0.04 0.01,0.07 0.01,0.11 0,0.55 -0.44,0.99 -0.99,0.99 -0.01,0 -0.01,-0 -0.02,-0 -0.62,-0.01 -1.13,-0.48 -1.2,-1.1 -0,-0.04 -0.01,-0.07 -0.01,-0.11 0,-0.55 0.45,-0.99 0.99,-0.99 0.01,0 0.01,0 0.02,0 0.62,0.01 1.13,0.49 1.2,1.1l-0 0z"/>
   <path class="fil0" d="M12.08 3.35c0.1,-0.1 0.24,-0.16 0.38,-0.16 0.14,0 0.28,0.06 0.38,0.16 0.02,0.02 0.04,0.02 0.06,0.02 0.05,0 0.09,-0.04 0.09,-0.09 0,-0.03 -0.01,-0.05 -0.03,-0.07 -0.14,-0.14 -0.33,-0.21 -0.52,-0.21 -0.19,0 -0.38,0.08 -0.52,0.21 -0.08,0.08 0.07,0.22 0.15,0.14l0.01 0z"/>
   <path class="fil0" d="M12.11 2.44c0,0.12 -0.02,0.22 -0.08,0.22 -0.05,0 -0.1,-0.1 -0.11,-0.22 -0.01,-0.12 0.02,-0.22 0.08,-0.22 0.05,0 0.11,0.1 0.11,0.22z"/>
   <path class="fil0" d="M12.83 2.44c0,0.12 -0.02,0.22 -0.07,0.22 -0.05,0 -0.1,-0.1 -0.11,-0.22 -0.01,-0.12 0.02,-0.22 0.07,-0.22 0.05,0 0.1,0.1 0.11,0.22z"/>
   <ellipse class="fil5" transform="matrix(0.369244 -0.385718 0.385718 0.369244 1.90046 9.74944)" rx="3.13" ry="3.41"/>
   <ellipse class="fil0" transform="matrix(0.369244 -0.385718 0.385718 0.369244 1.90046 9.73903)" rx="1.97" ry="2.15"/>
   <path class="fil6" d="M2.63 8.98c-0.46,-0.44 -1.16,-0.45 -1.56,-0.03 -0.4,0.42 -0.36,1.12 0.1,1.55 0.46,0.44 1.16,0.45 1.56,0.03 0.4,-0.42 0.36,-1.12 -0.1,-1.55z"/>
   <path class="fil0" d="M1.39 10.09c0.15,0.14 0.34,0.22 0.55,0.22 0.2,0 0.4,-0.08 0.55,-0.22l-0.02 -0.18 -1.09 -0 0.02 0.18z"/>
   <path class="fil0" d="M1.76 9.41c-0.06,-0.06 -0.15,-0.1 -0.24,-0.1 -0.09,0 -0.18,0.03 -0.24,0.1 -0.07,0.06 0.04,0.16 0.11,0.1 0.04,-0.04 0.09,-0.06 0.14,-0.06 0.05,0 0.1,0.02 0.14,0.06 0.08,0.06 0.17,-0.04 0.09,-0.1l0 0z"/>
   <path class="fil0" d="M2.48 9.41c-0.06,-0.06 -0.15,-0.1 -0.24,-0.1 -0.09,0 -0.18,0.03 -0.24,0.1 -0.07,0.06 0.04,0.16 0.11,0.1 0.04,-0.04 0.09,-0.06 0.14,-0.06 0.05,0 0.1,0.02 0.14,0.06 0.07,0.06 0.17,-0.04 0.09,-0.1l-0 0z"/>
  </g>
 </g>
</svg>
