<?xml version="1.0" encoding="UTF-8"?>
<!DOCTYPE svg PUBLIC "-//W3C//DTD SVG 1.1//EN" "http://www.w3.org/Graphics/SVG/1.1/DTD/svg11.dtd">
<!-- Creator: CorelDRAW -->
<svg xmlns="http://www.w3.org/2000/svg" xml:space="preserve" width="8.6416mm" height="3.2088mm" version="1.1" style="shape-rendering:geometricPrecision; text-rendering:geometricPrecision; image-rendering:optimizeQuality; fill-rule:evenodd; clip-rule:evenodd"
viewBox="0 0 15.7 5.83"
 xmlns:xlink="http://www.w3.org/1999/xlink"
 xmlns:xodm="http://www.corel.com/coreldraw/odm/2003">
 <defs>
  <style type="text/css">
   <![CDATA[
    .fil2 {fill:#263238;fill-rule:nonzero}
    .fil1 {fill:#5A8CF0;fill-rule:nonzero}
    .fil0 {fill:white;fill-rule:nonzero}
    .fil3 {fill:white;fill-rule:nonzero;fill-opacity:0.501961}
    .fil4 {fill:white;fill-rule:nonzero;fill-opacity:0.901961}
   ]]>
  </style>
 </defs>
 <g id="Layer_x0020_1">
  <metadata id="CorelCorpID_0Corel-Layer"/>
  <g id="_2697236391232">
   <path class="fil0" d="M14.46 5.82l-13.19 -1.14c-0.57,-0.07 -1.02,-0.52 -1.09,-1.09l-0.17 -1.9c-0,-0.03 -0.01,-0.07 -0.01,-0.11 0,-0.45 0.36,-0.81 0.81,-0.81 0.04,0 0.08,0 0.11,0.01l13.2 1.13c0.57,0.06 1.03,0.51 1.09,1.09l0.17 1.9c0,0.03 0.01,0.07 0.01,0.11 0,0.45 -0.37,0.82 -0.82,0.82 -0.04,0 -0.07,-0 -0.11,-0.01l-0 0z"/>
   <path class="fil1" d="M3.45 2.92c0.01,0.04 0.01,0.08 0.01,0.12 0,0.54 -0.44,0.98 -0.98,0.98 -0.04,0 -0.09,-0 -0.13,-0.01 -0.68,-0.08 -1.23,-0.61 -1.31,-1.3 -0.01,-0.04 -0.01,-0.08 -0.01,-0.12 0,-0.54 0.44,-0.98 0.98,-0.98 0.04,0 0.09,0 0.13,0.01 0.68,0.08 1.23,0.62 1.31,1.3l0 0z"/>
   <path class="fil2" d="M4.99 2.39c-0.15,-0.02 -0.27,-0.13 -0.28,-0.28 -0,-0.01 -0,-0.02 -0,-0.03 0,-0.12 0.09,-0.21 0.21,-0.21 0.01,0 0.03,0 0.04,0l8.09 0.7c0.15,0.02 0.27,0.13 0.28,0.28 0,0.01 0,0.02 0,0.03 0,0.12 -0.09,0.21 -0.21,0.21 -0.01,0 -0.03,-0 -0.04,-0l-8.09 -0.7z"/>
   <path class="fil2" d="M5.15 4.27c-0.15,-0.02 -0.27,-0.13 -0.28,-0.28 -0,-0.01 -0,-0.02 -0,-0.03 0,-0.12 0.09,-0.21 0.21,-0.21 0.01,0 0.03,0 0.04,0l4.74 0.41c0.15,0.02 0.27,0.13 0.28,0.28 0,0.01 0,0.02 0,0.03 0,0.12 -0.09,0.21 -0.21,0.21 -0.01,0 -0.02,-0 -0.03,-0l-4.75 -0.41z"/>
   <path class="fil2" d="M5.07 3.33c-0.15,-0.02 -0.27,-0.13 -0.28,-0.28 -0,-0.01 -0,-0.02 -0,-0.03 0,-0.12 0.09,-0.21 0.21,-0.21 0.01,0 0.03,0 0.04,0l6.86 0.6c0.15,0.02 0.27,0.13 0.28,0.28 0,0.01 0,0.02 0,0.03 0,0.12 -0.09,0.21 -0.21,0.21 -0.01,0 -0.02,-0 -0.03,-0l-6.87 -0.6z"/>
   <g>
    <path class="fil3" d="M4.99 2.39c-0.15,-0.02 -0.27,-0.13 -0.28,-0.28 -0,-0.01 -0,-0.02 -0,-0.03 0,-0.12 0.09,-0.21 0.21,-0.21 0.01,0 0.03,0 0.04,0l8.09 0.7c0.15,0.02 0.27,0.13 0.28,0.28 0,0.01 0,0.02 0,0.03 0,0.12 -0.09,0.21 -0.21,0.21 -0.01,0 -0.03,-0 -0.04,-0l-8.09 -0.7z"/>
    <path class="fil3" d="M5.15 4.27c-0.15,-0.02 -0.27,-0.13 -0.28,-0.28 -0,-0.01 -0,-0.02 -0,-0.03 0,-0.12 0.09,-0.21 0.21,-0.21 0.01,0 0.03,0 0.04,0l4.74 0.41c0.15,0.02 0.27,0.13 0.28,0.28 0,0.01 0,0.02 0,0.03 0,0.12 -0.09,0.21 -0.21,0.21 -0.01,0 -0.02,-0 -0.03,-0l-4.75 -0.41z"/>
    <path class="fil3" d="M5.07 3.33c-0.15,-0.02 -0.27,-0.13 -0.28,-0.28 -0,-0.01 -0,-0.02 -0,-0.03 0,-0.12 0.09,-0.21 0.21,-0.21 0.01,0 0.03,0 0.04,0l6.86 0.6c0.15,0.02 0.27,0.13 0.28,0.28 0,0.01 0,0.02 0,0.03 0,0.12 -0.09,0.21 -0.21,0.21 -0.01,0 -0.02,-0 -0.03,-0l-6.87 -0.6z"/>
   </g>
   <path class="fil1" d="M15.15 0.12l-1.54 -0.12c-0.01,-0 -0.02,-0 -0.04,-0 -0.17,0 -0.31,0.14 -0.31,0.31 0,0.01 0,0.03 0,0.04l0.13 1.29c0.03,0.22 0.2,0.39 0.42,0.41l0.45 0.04 0.22 0.31c0.03,0.05 0.08,0.09 0.14,0.09 0.05,0 0.1,-0.03 0.13,-0.07l0.16 -0.29 0.45 0.04c0.01,0 0.03,0 0.04,0 0.17,0 0.31,-0.14 0.31,-0.31 0,-0.01 -0,-0.03 -0,-0.04l-0.13 -1.28c-0.03,-0.22 -0.2,-0.39 -0.42,-0.41l0 -0z"/>
   <g>
    <path class="fil4" d="M13.96 1.16c-0.11,-0.1 -0.18,-0.23 -0.21,-0.38 -0,-0.02 -0.01,-0.04 -0.01,-0.06 0,-0.14 0.11,-0.25 0.25,-0.25 0.02,0 0.04,0 0.06,0.01 0.19,0.02 0.25,0.11 0.38,0.25 0.1,-0.12 0.16,-0.2 0.35,-0.18 0.2,0.01 0.35,0.17 0.36,0.36 0,0.01 0,0.02 0,0.03 0,0.12 -0.05,0.24 -0.14,0.32l-0.48 0.47 -0.57 -0.57z"/>
   </g>
  </g>
 </g>
</svg>
